HIERARCHY
ROOT root
{
	OFFSET 0.000000 0.000000 0.000000
	CHANNELS 6 Xposition Yposition Zposition Zrotation Yrotation Xrotation
	JOINT lhip
	{
		OFFSET 0.058581 -0.082280 -0.017664
		CHANNELS 3 Zrotation Yrotation Xrotation
		JOINT lknee
		{
			OFFSET 0.043451 -0.386469 0.008037
			CHANNELS 3 Zrotation Yrotation Xrotation
			JOINT lankle
			{
				OFFSET -0.014790 -0.426874 -0.037428
				CHANNELS 3 Zrotation Yrotation Xrotation
				JOINT ltoe
				{
					OFFSET 0.041054 -0.060286 0.122042
					CHANNELS 3 Zrotation Yrotation Xrotation
					End Site
					{
						OFFSET 0.000000 0.000000 0.000000
					}
				}
			}
		}
	}
	JOINT rhip
	{
		OFFSET -0.060310 -0.090513 -0.013543
		CHANNELS 3 Zrotation Yrotation Xrotation
		JOINT rknee
		{
			OFFSET -0.043257 -0.383688 -0.004843
			CHANNELS 3 Zrotation Yrotation Xrotation
			JOINT rankle
			{
				OFFSET 0.019056 -0.420046 -0.034562
				CHANNELS 3 Zrotation Yrotation Xrotation
				JOINT rtoe
				{
					OFFSET -0.034840 -0.062106 0.130323
					CHANNELS 3 Zrotation Yrotation Xrotation
					End Site
					{
						OFFSET 0.000000 0.000000 0.000000
					}
				}
			}
		}
	}
	JOINT lowerback
	{
		OFFSET 0.004439 0.124404 -0.038385
		CHANNELS 3 Zrotation Yrotation Xrotation
		JOINT upperback
		{
			OFFSET 0.004488 0.137956 0.026820
			CHANNELS 3 Zrotation Yrotation Xrotation
			JOINT chest
			{
				OFFSET -0.002265 0.056032 0.002855
				CHANNELS 3 Zrotation Yrotation Xrotation
				JOINT lowerneck
				{
					OFFSET -0.013390 0.211636 -0.033468
					CHANNELS 3 Zrotation Yrotation Xrotation
					JOINT upperneck
					{
						OFFSET 0.010113 0.088937 0.050410
						CHANNELS 3 Zrotation Yrotation Xrotation
						End Site
						{
							OFFSET 0.000000 0.000000 0.000000
						}
					}
				}
				JOINT lclavicle
				{
					OFFSET 0.071702 0.114000 -0.018898
					CHANNELS 3 Zrotation Yrotation Xrotation
					JOINT lshoulder
					{
						OFFSET 0.122921 0.045205 -0.019046
						CHANNELS 3 Zrotation Yrotation Xrotation
						JOINT lelbow
						{
							OFFSET 0.255332 -0.015649 -0.022946
							CHANNELS 3 Zrotation Yrotation Xrotation
							JOINT lwrist
							{
								OFFSET 0.265709 0.012698 -0.007375
								CHANNELS 3 Zrotation Yrotation Xrotation
								End Site
								{
									OFFSET 0.000000 0.000000 0.000000
								}
							}
						}
					}
				}
				JOINT rclavicle
				{
					OFFSET -0.082954 0.112472 -0.023707
					CHANNELS 3 Zrotation Yrotation Xrotation
					JOINT rshoulder
					{
						OFFSET -0.113228 0.046853 -0.008472
						CHANNELS 3 Zrotation Yrotation Xrotation
						JOINT relbow
						{
							OFFSET -0.260127 -0.014369 -0.031269
							CHANNELS 3 Zrotation Yrotation Xrotation
							JOINT rwrist
							{
								OFFSET -0.269108 0.006794 -0.006027
								CHANNELS 3 Zrotation Yrotation Xrotation
								End Site
								{
									OFFSET 0.000000 0.000000 0.000000
								}
							}
						}
					}
				}
			}
		}
	}
}
MOTION
Frames: 16
Frame Time: 0.033333
-0.318862 -0.181747 1.007358 -161.997246 5.374188 96.285985 10.755623 0.748307 -20.702530 -4.350737 -10.952862 15.554017 -0.724739 6.416641 -6.955577 0.000000 -0.000000 0.000000 -2.454681 -6.295922 -12.675990 -0.046939 -1.400578 10.499977 3.908583 -8.871036 -8.195010 0.000000 -0.000000 0.000000 -6.343252 6.411732 22.700952 -11.957614 -1.898096 13.904176 -5.602661 2.993901 -9.817693 -12.041839 -3.607432 25.618700 15.344785 5.136991 7.789798 -26.580619 -29.970576 6.923550 -49.425670 -35.345278 29.113685 -6.235310 -32.072773 38.387608 -4.481983 -11.803817 25.906640 1.153866 23.750201 3.747846 28.089834 14.402284 6.506679 78.480367 57.664481 108.705019 13.519990 8.491658 14.113912 
-0.318621 -0.180982 1.007374 -161.433596 5.427843 96.345024 10.877837 0.749434 -20.749932 -4.520954 -11.293645 15.390083 -0.875389 6.366386 -6.865873 0.000000 -0.000000 0.000000 -2.368573 -6.373020 -12.547961 -0.021877 -1.595062 10.524900 3.868276 -9.125279 -8.342852 0.000000 -0.000000 0.000000 -6.187462 6.224600 22.916880 -11.976333 -1.999165 13.720094 -5.596417 2.965100 -9.629947 -12.138788 -3.605597 25.909608 15.556090 5.424058 7.500574 -26.714446 -29.946113 6.940173 -49.342954 -35.382294 29.385465 -6.514991 -31.859852 39.714466 -3.555311 -12.134111 26.987166 0.943912 23.624748 3.659811 28.286307 14.251922 6.571200 77.798003 57.473663 108.049229 12.989311 8.878678 13.350272 
-0.318539 -0.180309 1.007308 -160.933919 5.479015 96.386476 10.873982 0.548830 -20.769693 -4.447635 -11.779345 15.348352 -0.899562 6.459486 -6.978927 0.000000 -0.000000 0.000000 -2.307242 -6.371887 -12.438809 0.018859 -1.755743 10.608629 3.767824 -9.394635 -8.525317 0.000000 -0.000000 0.000000 -5.959272 6.097408 23.062299 -12.041386 -2.104024 13.681546 -5.674641 2.883239 -9.542754 -12.166315 -3.731261 26.102473 15.686879 5.402854 7.378315 -26.822687 -30.053875 7.230237 -49.054999 -35.399047 29.251556 -6.717552 -31.837900 40.493505 -3.423790 -12.084745 27.644063 0.841696 23.648682 3.645647 28.821167 13.989274 6.511927 77.909767 57.669035 107.768787 13.491139 8.620936 12.410856 
-0.318523 -0.179770 1.007262 -160.438370 5.496134 96.420925 10.835194 0.510369 -20.903030 -4.351986 -11.803073 15.350467 -0.824928 6.288821 -6.823847 0.000000 -0.000000 0.000000 -2.278688 -6.407856 -12.372770 0.022733 -1.930231 10.717024 3.697597 -9.584861 -8.658495 0.000000 -0.000000 0.000000 -5.722841 6.006200 23.275641 -12.105744 -2.188171 13.659902 -5.800007 2.791326 -9.510924 -12.024714 -3.845530 26.301612 15.824294 5.234396 7.374191 -26.873420 -30.236999 7.444647 -48.748047 -35.355274 29.175178 -7.017940 -31.962215 40.855894 -3.511188 -11.972055 28.064101 0.891846 23.578073 3.667292 29.533373 13.676278 6.547882 78.557047 58.172707 108.279782 14.171537 8.056778 11.910479 
-0.318451 -0.179595 1.007319 -159.974853 5.512165 96.442980 10.825515 0.403426 -21.021717 -4.325427 -11.939152 15.383284 -0.818633 6.203782 -6.790519 0.000000 -0.000000 0.000000 -2.262913 -6.440025 -12.372581 0.027356 -2.168889 10.935811 3.702924 -9.750085 -8.753833 0.000000 -0.000000 0.000000 -5.548937 5.952931 23.546025 -12.095662 -2.275195 13.638235 -5.832643 2.762544 -9.362991 -11.884863 -3.865854 26.483967 16.030468 5.108107 7.113814 -26.712362 -30.376990 7.475002 -48.763128 -35.455367 29.229763 -7.160502 -32.082111 40.960849 -3.688848 -11.800857 28.006858 0.775462 23.469320 3.510504 30.268664 13.285548 6.597186 79.410593 58.754997 109.018261 14.754093 7.539778 11.300793 
-0.318249 -0.179424 1.007252 -159.561414 5.451734 96.526963 10.737679 0.337680 -21.227871 -4.304920 -12.051286 15.474726 -0.853368 6.135532 -6.810345 0.000000 -0.000000 0.000000 -2.302128 -6.545997 -12.425691 0.047961 -2.301821 11.146121 3.629213 -9.939146 -8.913130 0.000000 -0.000000 0.000000 -5.511357 5.932667 23.757349 -12.087899 -2.354124 13.630549 -5.799383 2.715340 -9.160546 -11.710104 -3.896515 26.512518 16.065962 4.838844 6.700254 -26.409406 -30.369456 7.381981 -48.861539 -35.638457 29.336804 -7.397625 -32.278572 41.198591 -3.325378 -11.740844 27.804038 0.448222 23.213047 3.298657 31.089318 12.972449 6.774303 79.768665 59.266487 109.283605 14.635579 7.307066 10.058308 
-0.318209 -0.179454 1.007268 -159.269749 5.428381 96.696197 10.679301 0.400099 -21.493611 -4.328964 -12.189978 15.524384 -0.809497 6.084002 -6.810743 0.000000 -0.000000 0.000000 -2.309959 -6.666633 -12.626739 0.097850 -2.339323 11.337397 3.647117 -10.073138 -9.015849 0.000000 -0.000000 0.000000 -5.522185 5.898597 23.796588 -12.110811 -2.443332 13.695634 -5.838846 2.713127 -9.159141 -11.660193 -3.880243 26.718894 16.341572 4.770763 6.532984 -26.344714 -30.439601 7.548236 -48.684301 -35.673009 29.338147 -7.541217 -32.530485 41.335377 -2.222035 -11.754141 27.488852 0.338015 23.102923 3.299667 31.738021 12.411991 6.829697 79.228248 59.770637 108.388125 13.850960 7.378442 8.559592 
-0.318226 -0.179098 1.007163 -159.125146 5.440308 96.833799 10.648466 0.330494 -21.634691 -4.192536 -12.255845 15.490794 -0.800457 6.109395 -6.814406 0.000000 -0.000000 0.000000 -2.271037 -6.646534 -12.781275 0.079986 -2.433520 11.448938 3.649399 -10.183775 -9.070925 0.000000 -0.000000 0.000000 -5.578522 5.931485 23.796029 -12.132632 -2.502455 13.726037 -5.870030 2.662151 -9.194898 -11.559921 -3.872199 27.071501 16.651334 4.743126 6.494795 -26.441708 -30.428058 7.676561 -48.505885 -35.695246 29.383187 -7.680682 -32.523473 41.166580 -1.054667 -12.226265 27.385600 0.391794 22.998758 3.272102 32.261693 11.920809 7.020561 77.996426 60.374455 106.599162 12.813895 7.987340 6.813619 
-0.318143 -0.178376 1.007355 -159.072711 5.465803 96.847545 10.690756 0.421232 -21.588097 -4.247268 -12.410828 15.428794 -0.835274 6.227208 -6.820460 0.000000 -0.000000 0.000000 -2.159203 -6.626148 -12.757931 0.027344 -2.296863 11.452208 3.568071 -10.364485 -9.146692 0.000000 -0.000000 0.000000 -5.779711 5.947075 23.849014 -12.124934 -2.503579 13.771804 -5.852837 2.695197 -9.255794 -11.659291 -3.813494 27.525974 17.005868 4.994162 6.370704 -26.620824 -30.358562 7.936832 -48.056993 -35.811064 29.270315 -7.976275 -32.651385 41.174106 0.136370 -12.367206 26.977992 0.347212 22.817157 3.198274 32.848645 11.650993 7.040039 76.455354 60.686897 104.298561 11.718077 8.285286 4.834603 
-0.318531 -0.178078 1.007397 -158.973299 5.440889 96.912779 10.679996 0.437711 -21.695855 -4.381155 -12.521986 15.510626 -0.820481 6.255488 -6.824462 0.000000 -0.000000 0.000000 -2.176472 -6.619939 -12.787170 0.010616 -2.296645 11.471892 3.546412 -10.501500 -9.179081 0.000000 -0.000000 0.000000 -5.872204 5.935985 23.917574 -12.145005 -2.536914 13.755063 -5.857085 2.666732 -9.299182 -11.675692 -3.829008 27.789672 17.089896 4.925493 6.243865 -26.662150 -30.229740 8.045213 -47.940226 -35.949730 29.340946 -8.174540 -32.685420 41.178269 0.948884 -12.521517 26.578378 0.197281 22.618302 3.194960 33.487494 11.430457 7.155379 74.987031 61.163760 101.960558 10.941826 8.673844 2.483657 
-0.318738 -0.177672 1.007390 -158.954573 5.463617 96.953227 10.706312 0.441317 -21.741597 -4.422626 -12.552102 15.553335 -0.851367 6.339915 -6.894508 0.000000 -0.000000 0.000000 -2.110419 -6.603015 -12.748996 -0.040399 -2.262927 11.376561 3.478296 -10.588335 -9.146224 0.000000 -0.000000 0.000000 -5.938534 5.999585 23.926630 -12.115078 -2.497446 13.818865 -5.794931 2.651846 -9.207707 -11.748001 -3.782422 27.931408 17.129233 4.840746 5.802691 -26.612133 -30.169420 8.048831 -47.883339 -36.106293 29.430724 -8.409860 -32.702166 41.293888 2.131309 -12.710772 26.297624 0.000773 22.410820 3.151355 33.927940 11.227701 7.180522 74.338049 61.390737 100.566737 9.534219 8.827199 0.909851 
-0.318997 -0.177423 1.007474 -158.949846 5.449133 97.026241 10.706578 0.454223 -21.864509 -4.491864 -12.548283 15.645217 -0.880317 6.346443 -6.869872 0.000000 -0.000000 0.000000 -2.108271 -6.611659 -12.817557 -0.058164 -2.224555 11.394105 3.478483 -10.614379 -9.141137 0.000000 -0.000000 0.000000 -6.040771 6.086971 23.870591 -12.088206 -2.451730 13.896585 -5.749477 2.672064 -9.103464 -11.792937 -3.685862 28.040361 17.264319 4.840730 5.544169 -26.490977 -30.257833 8.074463 -47.898764 -36.262485 29.445898 -8.550473 -32.544473 41.381407 2.799185 -12.977363 26.163604 -0.120493 22.232082 3.124503 34.338506 11.037280 7.044382 74.033889 61.487619 99.839546 8.733711 8.920220 0.370852 
-0.319271 -0.177086 1.007645 -158.896753 5.456638 97.053245 10.727365 0.450827 -21.899923 -4.561943 -12.605990 15.689321 -0.858535 6.341051 -6.904140 0.000000 -0.000000 0.000000 -2.096872 -6.662651 -12.803387 -0.039793 -2.186576 11.392875 3.480621 -10.667492 -9.172448 0.000000 -0.000000 0.000000 -6.041822 6.161721 23.949491 -12.104527 -2.437649 13.860713 -5.780039 2.586926 -9.033175 -11.628589 -3.657363 28.174598 17.391315 4.801415 5.404578 -26.312527 -30.289877 8.185319 -47.906546 -36.352439 29.417348 -8.557860 -32.587890 41.377344 3.034558 -13.128033 26.096270 -0.193483 22.121777 3.068179 34.902947 10.804710 7.143648 73.336436 61.790475 98.915151 8.575932 8.936675 -1.078121 
-0.319602 -0.176720 1.007636 -158.777924 5.427604 97.119403 10.681724 0.423087 -21.997507 -4.584741 -12.658116 15.754701 -0.830757 6.320704 -6.916025 0.000000 -0.000000 0.000000 -2.115665 -6.722979 -12.801379 -0.053677 -2.190470 11.361832 3.490437 -10.758779 -9.225030 0.000000 -0.000000 0.000000 -6.119988 6.204837 23.926471 -12.108885 -2.478401 13.920588 -5.786318 2.574818 -9.001506 -11.462860 -3.664241 28.272005 17.565193 4.673651 5.402951 -26.202593 -30.328086 8.287581 -47.997559 -36.500752 29.495136 -8.551050 -32.466864 41.320847 3.684922 -13.366525 25.831504 -0.309329 22.025308 3.129465 35.530524 10.511946 7.239172 72.376341 62.257638 97.622556 7.769164 8.993348 -2.698640 
-0.320054 -0.176337 1.007691 -158.625508 5.427081 97.174960 10.658289 0.378461 -22.068835 -4.616463 -12.731666 15.801698 -0.831142 6.346891 -6.978843 0.000000 -0.000000 0.000000 -2.104441 -6.740683 -12.735624 -0.090217 -2.185556 11.250486 3.517900 -10.861331 -9.189368 0.000000 -0.000000 0.000000 -6.191399 6.167698 23.955929 -12.084199 -2.555159 13.948519 -5.786339 2.561541 -9.033617 -11.403079 -3.576772 28.499089 17.718438 4.854548 5.359977 -26.220284 -30.232214 8.399956 -48.078589 -36.623189 29.544355 -8.543054 -32.358005 41.390969 4.373142 -13.482257 25.592255 -0.452644 21.843283 3.102639 36.146066 10.464457 7.358241 71.307527 62.466315 96.369039 6.635113 8.910289 -3.852989 
-0.320336 -0.175997 1.007811 -158.543052 5.419508 97.300032 10.649474 0.377239 -22.220249 -4.671236 -12.741643 15.833990 -0.834211 6.337105 -6.907165 0.000000 -0.000000 0.000000 -2.064221 -6.762652 -12.848750 -0.139818 -2.211032 11.277882 3.498153 -10.927975 -9.211288 0.000000 -0.000000 0.000000 -6.249721 6.226153 23.915251 -12.099571 -2.572882 13.897845 -5.838918 2.488064 -9.084424 -11.329991 -3.551008 28.910150 18.004365 4.835822 5.337213 -26.235699 -30.180902 8.597257 -48.044641 -36.709483 29.527290 -8.648309 -32.272171 41.322989 4.838351 -13.547484 25.533600 -0.441202 21.686714 3.089852 36.828802 10.237834 7.453905 70.006190 62.820222 94.569298 6.155499 8.981419 -5.389579 
